<svg width="1024" height="1024" viewBox="0 0 1024 1024" xmlns="http://www.w3.org/2000/svg">
  <!-- Background -->
  <rect width="1024" height="1024" fill="#000000" rx="227"/>

  <!-- Letter D -->
  <path d="M 250 300 L 250 724 L 450 724 C 580 724 650 654 650 512 C 650 370 580 300 450 300 Z M 340 390 L 450 390 C 520 390 560 430 560 512 C 560 594 520 634 450 634 L 340 634 Z"
        fill="#FFFFFF"/>

  <!-- Letter R with wave -->
  <path d="M 700 300 L 700 724 M 700 390 L 800 390 C 850 390 880 420 880 470 C 880 520 850 550 800 550 L 700 550 M 770 550 L 890 724"
        stroke="#FFFFFF"
        stroke-width="90"
        stroke-linecap="round"
        stroke-linejoin="round"
        fill="none"/>

  <!-- Subtle wave accent under letters -->
  <path d="M 250 770 Q 340 750 430 770 T 610 770 T 790 770"
        stroke="#FFFFFF"
        stroke-width="20"
        fill="none"
        stroke-linecap="round"/>
</svg>
